<?xml version="1.0" encoding="UTF-8" standalone="no"?><!DOCTYPE svg PUBLIC "-//W3C//DTD SVG 1.1//EN" "http://www.w3.org/Graphics/SVG/1.1/DTD/svg11.dtd"><svg width="100%" height="100%" viewBox="0 0 120 24" version="1.1" xmlns="http://www.w3.org/2000/svg" xmlns:xlink="http://www.w3.org/1999/xlink" xml:space="preserve" xmlns:serif="http://www.serif.com/" style="fill-rule:evenodd;clip-rule:evenodd;stroke-linejoin:round;stroke-miterlimit:1.41421;"><rect id="Artboard5" x="0" y="0" width="120" height="24" style="fill:none;"/><rect x="72.317" y="4.822" width="47.435" height="13.054" style="fill:#0B0B0B;"/><g style="fill:#0B0B0B;"><path d="M55.425,6.289l0.053,0.006l0.052,0.011l0.05,0.016l0.049,0.021l0.046,0.026l0.044,0.03l0.113,0.084l0.111,0.085l0.112,0.084l0.11,0.085l0.11,0.084l0.11,0.084l0.108,0.083l0.108,0.084l0.108,0.083l0.107,0.083l0.106,0.083l0.106,0.082l0.104,0.083l0.105,0.082l0.104,0.082l0.103,0.081l0.102,0.082l0.102,0.081l0.101,0.081l0.101,0.081l0.1,0.08l0.099,0.081l0.099,0.08l0.099,0.08l0.097,0.08l0.097,0.079l0.097,0.079l0.096,0.079l0.095,0.079l0.094,0.079l0.094,0.078l0.094,0.078l0.093,0.078l0.092,0.077l0.092,0.078l0.091,0.077l0.091,0.077l0.089,0.077l0.09,0.076l0.089,0.076l0.088,0.076l0.087,0.076l0.087,0.075l0.087,0.075l0.086,0.075l0.085,0.075l0.085,0.074l0.084,0.075l0.084,0.074l0.083,0.073l0.082,0.074l0.082,0.073l0.082,0.073l0.081,0.073l0.16,0.144l0.157,0.144l0.156,0.142l0.154,0.142l0.151,0.14l0.149,0.139l0.147,0.139l0.145,0.137l0.143,0.136l0.14,0.135l0.139,0.134l0.136,0.133l0.135,0.132l0.132,0.13l0.13,0.13l0.128,0.128l0.127,0.127l0.124,0.126l0.122,0.125l0.12,0.123l0.119,0.123l0.116,0.121l0.114,0.12l0.113,0.119l0.11,0.118l0.109,0.116l0.106,0.115l0.105,0.114l0.103,0.113l0.101,0.112l0.1,0.11l0.097,0.109l0.096,0.108l0.093,0.106l0.092,0.105l0.091,0.104l0.088,0.102l0.087,0.102l0.085,0.099l0.083,0.099l0.082,0.097l0.079,0.096l0.078,0.095l0.077,0.093l0.075,0.091l0.073,0.091l0.071,0.089l0.07,0.088l0.068,0.086l0.067,0.085l0.065,0.083l0.063,0.082l0.062,0.081l0.06,0.079l0.059,0.077l0.058,0.077l0.055,0.074l0.054,0.074l0.053,0.072l0.051,0.07l0.05,0.069l0.048,0.067l0.047,0.066l0.046,0.064l0.044,0.063l0.042,0.061l0.042,0.06l0.04,0.058l0.038,0.056l0.037,0.056l0.036,0.053l0.034,0.052l0.034,0.05l0.031,0.049l0.031,0.047l0.029,0.045l0.028,0.045l0.053,0.082l0.047,0.077l0.042,0.069l0.038,0.063l0.034,0.056l0.028,0.05l0.024,0.042l0.02,0.036l0.016,0.028l0.012,0.022l0.009,0.017l0.023,0.048l0.018,0.05l0.013,0.052l0.008,0.052l0.002,0.054l-0.002,0.053l-0.007,0.053l-0.013,0.051l-0.018,0.051l-0.022,0.048l-0.027,0.046l-0.031,0.043l-0.035,0.04l-0.071,0.073l-0.186,0.191l-0.264,0.271l-0.149,0.152l-0.154,0.157l-0.154,0.158l-0.151,0.152l-0.141,0.142l-0.066,0.067l-0.062,0.062l-0.057,0.057l-0.053,0.052l-0.047,0.046l-0.042,0.041l-0.037,0.034l-0.018,0.017l-0.018,0.016l-0.021,0.018l-0.032,0.026l-0.024,0.016l-0.038,0.023l-0.04,0.02l-0.001,0.001l-0.041,0.017l-0.042,0.013l-0.044,0.01l-0.044,0.006l-0.044,0.003l-0.001,0l-0.047,0l-0.047,-0.005l-0.047,-0.009l-0.046,-0.013l-0.044,-0.017l-0.043,-0.021l-0.061,-0.033l-0.063,-0.034l-0.064,-0.035l-0.063,-0.036l-0.064,-0.037l-0.064,-0.037l-0.064,-0.037l-0.063,-0.038l-0.064,-0.039l-0.064,-0.039l-0.064,-0.04l-0.064,-0.04l-0.064,-0.041l-0.065,-0.041l-0.064,-0.042l-0.064,-0.043l-0.065,-0.043l-0.064,-0.043l-0.065,-0.044l-0.064,-0.045l-0.065,-0.045l-0.065,-0.045l-0.065,-0.046l-0.064,-0.047l-0.065,-0.046l-0.065,-0.048l-0.065,-0.048l-0.065,-0.048l-0.065,-0.049l-0.065,-0.049l-0.065,-0.049l-0.065,-0.05l-0.065,-0.051l-0.066,-0.051l-0.065,-0.051l-0.065,-0.052l-0.065,-0.052l-0.065,-0.052l-0.066,-0.053l-0.065,-0.054l-0.065,-0.053l-0.066,-0.054l-0.065,-0.055l-0.065,-0.055l-0.066,-0.055l-0.065,-0.055l-0.065,-0.056l-0.065,-0.056l-0.066,-0.057l-0.065,-0.056l-0.065,-0.058l-0.066,-0.057l-0.065,-0.058l-0.065,-0.058l-0.065,-0.058l-0.065,-0.059l-0.065,-0.059l-0.065,-0.059l-0.066,-0.06l-0.065,-0.059l-0.065,-0.061l-0.064,-0.06l-0.065,-0.06l-0.065,-0.061l-0.065,-0.061l-0.065,-0.062l-0.064,-0.061l-0.065,-0.062l-0.065,-0.062l-0.064,-0.062l-0.065,-0.062l-0.064,-0.063l-0.064,-0.063l-0.064,-0.063l-0.064,-0.063l-0.065,-0.064l-0.127,-0.127l-0.128,-0.127l-0.127,-0.129l-0.127,-0.129l-0.126,-0.129l-0.126,-0.13l-0.125,-0.131l-0.125,-0.131l-0.124,-0.131l-0.124,-0.131l-0.123,-0.132l-0.123,-0.132l-0.122,-0.132l-0.121,-0.132l-0.121,-0.132l-0.119,-0.132l-0.12,-0.132l-0.118,-0.132l-0.118,-0.131l-0.117,-0.132l-0.116,-0.131l-0.115,-0.131l-0.115,-0.131l-0.113,-0.131l-0.113,-0.13l-0.112,-0.129l-0.111,-0.129l-0.109,-0.129l-0.109,-0.127l-0.108,-0.128l-0.107,-0.126l-0.105,-0.126l-0.105,-0.125l-0.104,-0.124l-0.102,-0.123l-0.101,-0.122l-0.1,-0.122l-0.099,-0.12l-0.097,-0.119l-0.096,-0.118l-0.095,-0.117l-0.094,-0.116l-0.092,-0.114l-0.091,-0.113l-0.089,-0.112l-0.089,-0.11l-0.086,-0.109l-0.085,-0.107l-0.084,-0.106l-0.082,-0.105l-0.081,-0.102l-0.079,-0.101l-0.153,-0.197l-0.147,-0.189l-0.14,-0.182l-0.133,-0.173l-0.126,-0.165l-0.119,-0.157l-0.111,-0.147l-0.104,-0.138l-0.095,-0.127l-0.088,-0.118l-0.079,-0.106l-0.07,-0.096l-0.062,-0.085l-0.097,-0.132l-0.06,-0.083l-0.021,-0.028l-0.029,-0.046l-0.025,-0.049l-0.02,-0.051l-0.015,-0.052l-0.01,-0.054l-0.004,-0.055l0.002,-0.054l0.006,-0.055l0.012,-0.053l0.018,-0.052l0.022,-0.05l0.027,-0.047l0.032,-0.045l0.036,-0.041l1.49,-1.537l0.039,-0.036l0.042,-0.033l0.045,-0.028l0.047,-0.023l0.05,-0.019l0.051,-0.015l0.052,-0.009l0.053,-0.004l0.053,0.001Zm-1.527,2.086l0.02,0.028l0.058,0.08l0.096,0.131l0.061,0.084l0.07,0.094l0.079,0.106l0.086,0.117l0.095,0.126l0.103,0.137l0.11,0.146l0.118,0.155l0.125,0.165l0.133,0.172l0.139,0.181l0.146,0.188l0.152,0.195l0.079,0.1l0.08,0.102l0.082,0.104l0.083,0.105l0.084,0.107l0.087,0.108l0.087,0.11l0.089,0.111l0.09,0.112l0.092,0.114l0.093,0.115l0.094,0.116l0.096,0.117l0.097,0.119l0.098,0.119l0.099,0.121l0.101,0.121l0.101,0.122l0.103,0.124l0.104,0.124l0.105,0.125l0.106,0.125l0.107,0.126l0.108,0.127l0.109,0.128l0.11,0.128l0.111,0.129l0.112,0.129l0.112,0.129l0.114,0.13l0.114,0.13l0.116,0.13l0.116,0.131l0.116,0.13l0.118,0.131l0.118,0.131l0.119,0.131l0.12,0.131l0.12,0.131l0.121,0.13l0.121,0.131l0.122,0.13l0.123,0.13l0.123,0.13l0.123,0.13l0.124,0.129l0.125,0.128l0.125,0.128l0.125,0.128l0.125,0.127l0.126,0.126l0.127,0.126l0.063,0.063l0.063,0.062l0.064,0.062l0.063,0.062l0.064,0.062l0.063,0.061l0.064,0.062l0.063,0.061l0.064,0.061l0.064,0.06l0.064,0.061l0.064,0.06l0.063,0.06l0.064,0.06l0.064,0.059l0.064,0.059l0.064,0.059l0.064,0.059l0.064,0.058l0.064,0.058l0.064,0.058l0.064,0.057l0.065,0.057l0.064,0.057l0.064,0.056l0.064,0.056l0.064,0.056l0.064,0.056l0.064,0.055l0.064,0.054l0.064,0.055l0.064,0.054l0.064,0.053l0.064,0.054l0.064,0.052l0.064,0.053l0.063,0.052l0.064,0.052l0.064,0.051l0.064,0.051l0.063,0.05l0.064,0.05l0.063,0.05l0.064,0.049l0.063,0.049l0.063,0.048l0.064,0.048l0.063,0.047l0.063,0.047l0.063,0.047l0.063,0.046l0.063,0.045l0.063,0.045l0.062,0.045l0.063,0.044l0.063,0.043l0.062,0.043l0.062,0.043l0.062,0.041l0.063,0.042l0.062,0.041l0.061,0.04l0.062,0.04l0.062,0.039l0.061,0.039l0.062,0.038l0.061,0.037l0.061,0.037l0.061,0.037l0.061,0.036l0.06,0.035l0.061,0.034l0.06,0.034l0.061,0.034l0.06,0.032l0.06,0.033l0,0l0.002,-0.001l0.004,-0.003l0.007,-0.006l0.009,-0.007l0.011,-0.01l0.013,-0.012l0.032,-0.03l0.038,-0.037l0.045,-0.044l0.051,-0.051l0.057,-0.056l0.061,-0.061l0.065,-0.065l0.14,-0.142l0.15,-0.151l0.154,-0.157l0.153,-0.157l0.149,-0.152l0.263,-0.27l0.186,-0.19l0.07,-0.073l-0.007,-0.014l-0.01,-0.018l-0.014,-0.025l-0.018,-0.032l-0.022,-0.039l-0.027,-0.046l-0.031,-0.053l-0.036,-0.06l-0.04,-0.066l-0.046,-0.073l-0.05,-0.079l-0.027,-0.043l-0.028,-0.043l-0.029,-0.046l-0.031,-0.047l-0.032,-0.048l-0.034,-0.051l-0.034,-0.052l-0.036,-0.053l-0.038,-0.055l-0.038,-0.056l-0.041,-0.058l-0.041,-0.06l-0.043,-0.061l-0.044,-0.063l-0.046,-0.064l-0.047,-0.066l-0.049,-0.067l-0.05,-0.069l-0.051,-0.07l-0.053,-0.072l-0.055,-0.073l-0.056,-0.074l-0.058,-0.077l-0.059,-0.077l-0.06,-0.079l-0.063,-0.081l-0.063,-0.081l-0.066,-0.084l-0.067,-0.084l-0.068,-0.086l-0.071,-0.088l-0.071,-0.089l-0.074,-0.09l-0.075,-0.092l-0.077,-0.093l-0.079,-0.094l-0.08,-0.096l-0.082,-0.097l-0.083,-0.098l-0.086,-0.1l-0.087,-0.101l-0.089,-0.102l-0.091,-0.104l-0.092,-0.105l-0.095,-0.106l-0.096,-0.108l-0.098,-0.109l-0.1,-0.11l-0.101,-0.111l-0.104,-0.113l-0.105,-0.113l-0.107,-0.115l-0.11,-0.117l-0.111,-0.117l-0.113,-0.119l-0.115,-0.12l-0.117,-0.121l-0.119,-0.122l-0.121,-0.124l-0.122,-0.124l-0.125,-0.126l-0.127,-0.127l-0.129,-0.128l-0.131,-0.129l-0.133,-0.131l-0.135,-0.131l-0.137,-0.133l-0.14,-0.134l-0.141,-0.134l-0.144,-0.136l-0.145,-0.137l-0.148,-0.138l-0.15,-0.14l-0.152,-0.14l-0.154,-0.141l-0.157,-0.142l-0.158,-0.144l-0.081,-0.072l-0.08,-0.072l-0.082,-0.073l-0.081,-0.073l-0.083,-0.073l-0.083,-0.073l-0.083,-0.074l-0.084,-0.073l-0.085,-0.075l-0.085,-0.074l-0.086,-0.075l-0.086,-0.074l-0.087,-0.075l-0.088,-0.076l-0.088,-0.075l-0.089,-0.076l-0.089,-0.076l-0.09,-0.077l-0.09,-0.076l-0.091,-0.077l-0.092,-0.077l-0.092,-0.077l-0.093,-0.078l-0.093,-0.077l-0.094,-0.078l-0.095,-0.079l-0.095,-0.078l-0.096,-0.079l-0.096,-0.079l-0.097,-0.079l-0.097,-0.079l-0.099,-0.08l-0.098,-0.079l-0.1,-0.081l-0.1,-0.08l-0.1,-0.08l-0.101,-0.081l-0.102,-0.081l-0.103,-0.081l-0.103,-0.081l-0.103,-0.082l-0.105,-0.082l-0.105,-0.082l-0.105,-0.082l-0.106,-0.083l-0.107,-0.082l-0.107,-0.083l-0.108,-0.083l-0.109,-0.084l-0.109,-0.083l-0.11,-0.084l-0.111,-0.084l-0.111,-0.084l-0.112,-0.084l-1.49,1.537Z"/><path d="M49.552,1.976l0.013,0l0.005,0.001l0.004,0l0.013,0.001l0.013,0l0.004,0.001l0.005,0l0.013,0.002l0.012,0.002l0.005,0l0.004,0.001l0.013,0.003l0.012,0.002l0.005,0.001l0.005,0.001l0.012,0.003l0.012,0.003l0.005,0.002l0.004,0.001l0.012,0.004l0.012,0.004l0.005,0.002l0.004,0.001l0.012,0.005l0.012,0.005l0.004,0.002l0.004,0.001l0.031,0.014l0.036,0.017l0.051,0.022l0.063,0.027l0.076,0.033l0.087,0.037l0.097,0.041l0.108,0.045l0.117,0.048l0.061,0.024l0.063,0.026l0.065,0.025l0.067,0.027l0.069,0.027l0.07,0.027l0.072,0.027l0.073,0.028l0.074,0.027l0.075,0.028l0.076,0.028l0.078,0.028l0.078,0.028l0.078,0.027l0.08,0.028l0.08,0.027l0.08,0.026l0.081,0.027l0.081,0.026l0.08,0.025l0.081,0.025l0.081,0.024l0.08,0.023l0.08,0.023l0.08,0.022l0.039,0.011l0.039,0.01l0.039,0.01l0.039,0.01l0.039,0.01l0.039,0.009l0.038,0.009l0.038,0.009l0.038,0.009l0.037,0.008l0.037,0.008l0.037,0.008l0.036,0.007l0.036,0.007l0.036,0.007l0.035,0.007l0.034,0.006l0.035,0.005l0.034,0.006l0.033,0.005l0.033,0.005l0.032,0.004l0.032,0.004l0.031,0.004l0.03,0.003l0.03,0.003l0.03,0.003l0.028,0.002l0.028,0.002l0.027,0.001l0.027,0.001l0.025,0.001l0.025,0l0.024,0l0.023,0l0.022,-0.001l0.021,-0.001l0.042,-0.002l0.019,0l0.024,0l0.024,0.002l0.025,0.002l0.002,0.001l0.029,0.004l0.03,0.007l0.022,0.005l0.021,0.007l0.03,0.011l0.03,0.012l0.012,0.006l0.033,0.017l0.046,0.028l0.039,0.03l0.028,0.024l0.025,0.023l0.023,0.023l0.016,0.018l0.017,0.018l0.016,0.02l0.015,0.018l0.015,0.019l0.014,0.019l0.013,0.017l0.014,0.02l0.027,0.038l0.027,0.041l0.028,0.042l0.029,0.044l0.029,0.047l0.031,0.048l0.031,0.051l0.031,0.052l0.033,0.054l0.033,0.056l0.034,0.058l0.034,0.059l0.035,0.061l0.035,0.062l0.036,0.063l0.037,0.064l0.073,0.132l0.075,0.134l0.075,0.136l0.075,0.138l0.074,0.137l0.073,0.136l0.072,0.134l0.069,0.13l0.068,0.126l0.064,0.121l0.116,0.221l0.098,0.187l0.075,0.145l0.065,0.125l0.015,0.031l0.012,0.031l0.011,0.032l0.009,0.033l0.007,0.033l0.004,0.033l0.003,0.034l0.001,0.034l-0.002,0.033l-0.003,0.034l-0.006,0.033l-0.008,0.033l-0.009,0.033l-0.012,0.031l-0.013,0.031l-0.016,0.03l-0.017,0.029l-0.019,0.028l-0.021,0.027l-0.022,0.025l-0.024,0.024l-0.815,0.774l-0.771,0.818l-0.024,0.024l-0.025,0.022l-0.027,0.021l-0.028,0.019l-0.029,0.017l-0.03,0.016l-0.03,0.013l-0.032,0.012l-0.032,0.01l-0.033,0.007l-0.034,0.006l-0.033,0.004l-0.034,0.001l-0.034,0l-0.033,-0.003l-0.034,-0.004l-0.033,-0.007l-0.032,-0.009l-0.033,-0.01l-0.031,-0.013l-0.03,-0.014l-0.126,-0.065l-0.145,-0.075l-0.187,-0.097l-0.222,-0.116l-0.121,-0.063l-0.126,-0.067l-0.131,-0.069l-0.134,-0.071l-0.136,-0.073l-0.137,-0.074l-0.138,-0.075l-0.137,-0.074l-0.134,-0.074l-0.132,-0.073l-0.065,-0.036l-0.063,-0.036l-0.062,-0.035l-0.061,-0.035l-0.059,-0.034l-0.058,-0.034l-0.056,-0.033l-0.054,-0.032l-0.053,-0.031l-0.05,-0.031l-0.049,-0.03l-0.046,-0.029l-0.045,-0.029l-0.042,-0.028l-0.041,-0.027l-0.038,-0.027l-0.02,-0.014l-0.018,-0.014l-0.019,-0.014l-0.018,-0.014l-0.018,-0.014l-0.019,-0.016l-0.019,-0.017l-0.02,-0.018l-0.021,-0.021l-0.024,-0.025l-0.026,-0.03l-0.026,-0.035l-0.015,-0.025l-0.014,-0.022l-0.012,-0.023l-0.005,-0.009l-0.005,-0.01l-0.01,-0.023l-0.009,-0.024l-0.009,-0.025l-0.004,-0.014l-0.004,-0.014l-0.007,-0.032l-0.006,-0.032l0,-0.002l-0.003,-0.025l-0.002,-0.026l0,-0.025l0,-0.019l0.002,-0.041l0.001,-0.021l0.001,-0.022l0,-0.022l0,-0.025l-0.001,-0.025l0,-0.026l-0.001,-0.025l-0.002,-0.028l-0.002,-0.027l-0.002,-0.029l-0.003,-0.03l-0.003,-0.029l-0.003,-0.031l-0.004,-0.031l-0.004,-0.031l-0.005,-0.033l-0.005,-0.033l-0.005,-0.033l-0.005,-0.033l-0.006,-0.035l-0.007,-0.036l-0.006,-0.033l-0.007,-0.037l-0.007,-0.036l-0.008,-0.036l-0.008,-0.036l-0.008,-0.038l-0.008,-0.038l-0.009,-0.037l-0.009,-0.037l-0.009,-0.039l-0.01,-0.038l-0.009,-0.038l-0.011,-0.04l-0.01,-0.04l-0.01,-0.038l-0.011,-0.039l-0.022,-0.08l-0.023,-0.08l-0.024,-0.081l-0.024,-0.08l-0.025,-0.08l-0.026,-0.081l-0.026,-0.081l-0.027,-0.08l-0.027,-0.081l-0.027,-0.079l-0.028,-0.079l-0.028,-0.08l-0.028,-0.077l-0.028,-0.077l-0.028,-0.077l-0.028,-0.075l-0.028,-0.074l-0.028,-0.073l-0.027,-0.071l-0.028,-0.07l-0.027,-0.069l-0.026,-0.067l-0.026,-0.065l-0.026,-0.063l-0.025,-0.061l-0.048,-0.117l-0.045,-0.107l-0.041,-0.098l-0.038,-0.087l-0.033,-0.076l-0.027,-0.063l-0.023,-0.05l-0.016,-0.036l-0.013,-0.029l-0.002,-0.005l-0.003,-0.005l-0.004,-0.011l-0.005,-0.011l-0.002,-0.005l-0.002,-0.005l-0.003,-0.012l-0.004,-0.011l-0.002,-0.005l-0.001,-0.005l-0.003,-0.012l-0.004,-0.012l-0.001,-0.005l-0.001,-0.005l-0.002,-0.012l-0.003,-0.012l0,-0.005l-0.001,-0.005l-0.002,-0.012l-0.002,-0.012l0,-0.006l-0.001,-0.005l0,-0.012l-0.001,-0.012l-0.001,-0.005l0,-0.005l0,-0.013l0,-0.012l0,-0.005l0,-0.005l0.001,-0.012l0.001,-0.013l0,-0.005l0,-0.005l0.002,-0.012l0.001,-0.012l0.001,-0.005l0.001,-0.005l0.002,-0.012l0.002,-0.012l0.002,-0.005l0,-0.005l0.004,-0.012l0.002,-0.012l0.002,-0.005l0.001,-0.005l0.004,-0.012l0.004,-0.012l0.002,-0.004l0.001,-0.005l0.005,-0.012l0.004,-0.011l0.002,-0.005l0.002,-0.004l0.005,-0.011l0.005,-0.012l0.003,-0.004l0.002,-0.005l0.006,-0.011l0.006,-0.01l0.002,-0.005l0.003,-0.004l0.007,-0.011l0.006,-0.01l0.003,-0.004l0.003,-0.004l0.007,-0.01l0.007,-0.01l0.003,-0.004l0.003,-0.004l0.008,-0.01l0.008,-0.01l0.003,-0.003l0.004,-0.004l0.008,-0.009l0.009,-0.009l0.003,-0.004l0.003,-0.003l0.01,-0.009l0.009,-0.008l0.003,-0.003l0.004,-0.004l0.01,-0.008l0.009,-0.008l0.004,-0.003l0.004,-0.003l0.01,-0.007l0.01,-0.008l0.004,-0.002l0.004,-0.003l0.011,-0.007l0.01,-0.006l0.005,-0.003l0.004,-0.002l0.011,-0.006l0.011,-0.006l0.004,-0.003l0.004,-0.002l0.012,-0.005l0.011,-0.006l0.004,-0.001l0.005,-0.002l0.012,-0.005l0.011,-0.005l0.005,-0.001l0.004,-0.002l0.012,-0.004l0.012,-0.004l0.005,-0.001l0.004,-0.001l0.013,-0.003l0.012,-0.004l0.005,-0.001l0.004,-0.001l0.013,-0.002l0.012,-0.002l0.005,-0.001l0.004,-0.001l0.013,-0.001l0.012,-0.002l0.005,0l0.005,-0.001l0.013,-0.001l0.012,0l0.005,0l0.005,-0.001l0.012,0Zm0.154,0.67l0.15,0.116l0.144,0.113l0.139,0.109l0.133,0.106l0.128,0.103l0.123,0.099l0.118,0.096l0.113,0.093l0.108,0.09l0.103,0.087l0.05,0.042l0.049,0.042l0.047,0.04l0.047,0.04l0.045,0.04l0.044,0.038l0.043,0.038l0.042,0.038l0.041,0.036l0.04,0.036l0.039,0.035l0.038,0.034l0.037,0.034l0.036,0.033l0.035,0.033l0.034,0.032l0.033,0.031l0.032,0.03l0.031,0.03l0.03,0.03l0.03,0.028l0.028,0.028l0.028,0.028l0.026,0.026l0.026,0.027l0.025,0.025l0.024,0.025l0.023,0.025l0.023,0.024l0.022,0.023l0.021,0.023l0.02,0.022l0.019,0.022l0.019,0.021l0.018,0.021l0.017,0.02l0.017,0.02l0.016,0.019l0.015,0.019l0.015,0.018l0.014,0.017l0.013,0.017l0.013,0.017l0.012,0.016l0.011,0.016l0.011,0.015l0.011,0.015l0.009,0.015l0.01,0.014l0.008,0.013l0.009,0.013l0.007,0.013l0.007,0.012l0.007,0.012l0.006,0.012l0.006,0.011l0.006,0.011l0.005,0.01l0.004,0.01l0.004,0.01l0.004,0.009l0.004,0.009l0.003,0.008l0.002,0.009l0.003,0.008l0.002,0.007l0.001,0.008l0.002,0.006l0.001,0.007l0.001,0.006l0.001,0.007l0,0.005l0,0.006l0,0.005l0,0.005l-0.001,0.005l0,0.004l-0.001,0.004l-0.001,0.004l-0.001,0.004l-0.001,0.004l-0.001,0.003l-0.003,0.006l-0.004,0.005l-0.003,0.005l-0.003,0.003l-0.004,0.003l-0.003,0.003l-0.003,0.002l-0.003,0.002l-0.004,0.001l-0.002,0.001l0.045,0.093l-0.093,-0.044l-0.001,0.001l-0.001,0.004l-0.002,0.003l-0.002,0.003l-0.002,0.003l-0.004,0.004l-0.003,0.003l-0.005,0.004l-0.005,0.003l-0.006,0.003l-0.003,0.001l-0.004,0.001l-0.003,0.001l-0.004,0.001l-0.005,0.001l-0.004,0.001l-0.005,0l-0.005,0.001l-0.005,0l-0.006,-0.001l-0.005,0l-0.006,-0.001l-0.007,0l-0.006,-0.002l-0.007,-0.001l-0.008,-0.002l-0.007,-0.002l-0.008,-0.002l-0.008,-0.003l-0.009,-0.003l-0.009,-0.003l-0.009,-0.004l-0.01,-0.004l-0.01,-0.005l-0.01,-0.004l-0.011,-0.006l-0.011,-0.006l-0.012,-0.006l-0.012,-0.007l-0.012,-0.007l-0.013,-0.007l-0.013,-0.009l-0.013,-0.008l-0.014,-0.009l-0.015,-0.01l-0.015,-0.011l-0.015,-0.01l-0.016,-0.012l-0.016,-0.012l-0.017,-0.012l-0.017,-0.014l-0.018,-0.014l-0.018,-0.014l-0.019,-0.015l-0.019,-0.016l-0.02,-0.017l-0.02,-0.017l-0.021,-0.018l-0.021,-0.019l-0.022,-0.019l-0.022,-0.02l-0.023,-0.021l-0.023,-0.022l-0.024,-0.022l-0.025,-0.023l-0.025,-0.024l-0.026,-0.025l-0.026,-0.026l-0.027,-0.027l-0.028,-0.027l-0.028,-0.028l-0.028,-0.03l-0.03,-0.03l-0.03,-0.031l-0.03,-0.032l-0.032,-0.033l-0.032,-0.033l-0.032,-0.035l-0.033,-0.036l-0.034,-0.037l-0.035,-0.038l-0.035,-0.038l-0.036,-0.04l-0.037,-0.041l-0.037,-0.042l-0.038,-0.043l-0.039,-0.044l-0.039,-0.045l-0.041,-0.047l-0.041,-0.047l-0.041,-0.049l-0.043,-0.049l-0.087,-0.103l-0.09,-0.108l-0.094,-0.112l-0.096,-0.118l-0.1,-0.122l-0.103,-0.128l-0.106,-0.133l-0.11,-0.138l-0.113,-0.144l-0.117,-0.15l-0.12,-0.155l0.014,0.032l0.017,0.038l0.024,0.052l0.028,0.065l0.034,0.078l0.038,0.089l0.043,0.1l0.046,0.11l0.049,0.119l0.026,0.063l0.026,0.065l0.027,0.066l0.027,0.069l0.027,0.07l0.028,0.072l0.029,0.073l0.028,0.075l0.029,0.076l0.029,0.077l0.029,0.078l0.029,0.08l0.028,0.08l0.029,0.081l0.029,0.082l0.028,0.083l0.028,0.083l0.027,0.083l0.028,0.084l0.026,0.084l0.026,0.084l0.026,0.084l0.025,0.084l0.024,0.084l0.023,0.084l0.012,0.041l0.011,0.042l0.011,0.042l0.01,0.041l0.011,0.041l0.01,0.041l0.01,0.041l0.01,0.041l0.009,0.04l0.009,0.041l0.009,0.04l0.008,0.04l0.009,0.039l0.008,0.04l0.007,0.039l0.007,0.039l0.007,0.039l0.007,0.038l0.006,0.038l0.006,0.037l0.006,0.038l0.005,0.037l0.005,0.036l0.004,0.037l0.004,0.036l0.004,0.035l0.003,0.035l0.003,0.035l0.002,0.034l0.002,0.034l0.001,0.033l0.001,0.033l0.001,0.032l0,0.032l0,0.031l-0.001,0.031l-0.001,0.03l-0.002,0.03l0,0.002l0,0.002l0.001,0.002l0,0.003l0.001,0.002l0.002,0.002l0.003,0.006l0.005,0.006l0.005,0.006l0.006,0.007l0.008,0.007l0.008,0.007l0.009,0.008l0.01,0.009l0.011,0.009l0.012,0.009l0.012,0.009l0.014,0.01l0.014,0.011l0.031,0.021l0.035,0.023l0.037,0.025l0.039,0.025l0.043,0.027l0.045,0.028l0.048,0.029l0.05,0.03l0.052,0.031l0.054,0.031l0.055,0.033l0.058,0.033l0.059,0.034l0.061,0.034l0.062,0.035l0.063,0.036l0.13,0.071l0.133,0.074l0.135,0.073l0.136,0.074l0.136,0.073l0.135,0.072l0.133,0.071l0.13,0.069l0.125,0.066l0.121,0.063l0.22,0.115l0.186,0.097l0.144,0.074l0.125,0.065l0.781,-0.829l0.827,-0.785l-0.065,-0.125l-0.075,-0.143l-0.097,-0.186l-0.116,-0.22l-0.063,-0.12l-0.067,-0.125l-0.069,-0.13l-0.071,-0.133l-0.073,-0.134l-0.074,-0.136l-0.074,-0.136l-0.074,-0.135l-0.073,-0.133l-0.073,-0.129l-0.035,-0.063l-0.036,-0.062l-0.034,-0.061l-0.034,-0.059l-0.034,-0.057l-0.032,-0.056l-0.032,-0.054l-0.031,-0.052l-0.03,-0.049l-0.029,-0.048l-0.028,-0.045l-0.027,-0.042l-0.026,-0.04l-0.024,-0.037l-0.024,-0.034l-0.021,-0.031l-0.011,-0.014l-0.01,-0.014l-0.009,-0.013l-0.01,-0.011l-0.008,-0.011l-0.009,-0.01l-0.008,-0.009l-0.007,-0.009l-0.008,-0.007l-0.006,-0.006l-0.007,-0.006l-0.006,-0.004l-0.005,-0.003l-0.002,-0.002l-0.003,-0.001l-0.002,-0.001l-0.002,0l-0.002,0l-0.002,0l-0.03,0.002l-0.03,0.001l-0.031,0.001l-0.031,0l-0.032,0l-0.033,0l-0.032,-0.001l-0.034,-0.001l-0.034,-0.002l-0.034,-0.002l-0.034,-0.003l-0.035,-0.003l-0.036,-0.004l-0.036,-0.004l-0.036,-0.004l-0.037,-0.005l-0.037,-0.005l-0.037,-0.005l-0.038,-0.006l-0.038,-0.006l-0.038,-0.006l-0.039,-0.007l-0.039,-0.007l-0.039,-0.008l-0.039,-0.008l-0.04,-0.008l-0.04,-0.008l-0.04,-0.009l-0.04,-0.009l-0.041,-0.009l-0.041,-0.009l-0.041,-0.01l-0.041,-0.01l-0.041,-0.011l-0.041,-0.01l-0.042,-0.011l-0.042,-0.011l-0.041,-0.011l-0.084,-0.023l-0.084,-0.024l-0.084,-0.025l-0.085,-0.025l-0.084,-0.026l-0.084,-0.026l-0.084,-0.027l-0.083,-0.027l-0.083,-0.028l-0.083,-0.028l-0.082,-0.028l-0.081,-0.029l-0.08,-0.028l-0.08,-0.029l-0.078,-0.028l-0.078,-0.029l-0.076,-0.029l-0.075,-0.028l-0.073,-0.028l-0.072,-0.028l-0.07,-0.027l-0.069,-0.027l-0.067,-0.027l-0.064,-0.026l-0.063,-0.025l-0.12,-0.049l-0.11,-0.045l-0.1,-0.043l-0.089,-0.038l-0.078,-0.033l-0.065,-0.029l-0.052,-0.023l-0.039,-0.017l-0.031,-0.014l0.155,0.12Z"/><path d="M67.755,18.806l0.021,0.002l0.022,0.002l0.022,0.003l0.021,0.005l0.021,0.005l0.021,0.005l0.021,0.007l0.02,0.007l0.02,0.009l0.02,0.009l0.019,0.01l0.019,0.01l0.019,0.011l0.018,0.012l0.018,0.013l0.017,0.014l0.01,0.008l0.015,0.013l0.018,0.015l0.021,0.018l0.024,0.022l0.027,0.024l0.029,0.028l0.032,0.031l0.033,0.033l0.018,0.018l0.017,0.018l0.019,0.02l0.019,0.021l0.018,0.02l0.018,0.021l0.02,0.022l0.019,0.023l0.019,0.023l0.019,0.024l0.02,0.025l0.019,0.025l0.02,0.027l0.019,0.026l0.019,0.028l0.019,0.028l0.019,0.03l0.018,0.03l0.019,0.031l0.018,0.031l0.017,0.034l0.017,0.033l0.017,0.034l0.015,0.035l0.016,0.037l0.013,0.036l0.008,0.021l0.007,0.021l0.006,0.019l0.006,0.02l0.006,0.021l0.005,0.021l0.005,0.019l0.005,0.021l0.005,0.024l0.004,0.021l0.004,0.024l0.003,0.022l0.003,0.022l0.002,0.026l0.002,0.022l0.001,0.022l0.001,0.027l0.001,0.024l-0.001,0.025l0,0.024l-0.002,0.025l-0.002,0.026l-0.003,0.025l-0.003,0.024l-0.004,0.027l-0.005,0.026l-0.006,0.026l-0.006,0.026l-0.008,0.026l-0.007,0.026l-0.009,0.025l-0.009,0.025l-0.011,0.026l-0.011,0.027l-0.011,0.024l-0.011,0.021l-0.026,0.05l-0.025,0.047l-0.024,0.044l-0.025,0.044l-0.025,0.043l-0.025,0.042l-0.026,0.041l-0.014,0.021l-0.012,0.019l-0.014,0.02l-0.015,0.022l-0.014,0.019l-0.013,0.018l-0.015,0.02l-0.015,0.02l-0.014,0.018l-0.016,0.019l-0.015,0.019l-0.015,0.017l-0.016,0.02l-0.015,0.017l-0.016,0.017l-0.017,0.018l-0.017,0.018l-0.017,0.017l-0.016,0.016l-0.017,0.017l-0.017,0.016l-0.017,0.017l-0.018,0.016l-0.018,0.016l-0.035,0.031l-0.036,0.03l-0.037,0.03l-0.038,0.03l-0.039,0.03l-0.039,0.03l-0.041,0.03l-0.042,0.03l-0.043,0.031l-0.044,0.032l-0.047,0.033l-0.1,0.07l-0.021,0.014l-0.025,0.016l-0.025,0.015l-0.024,0.014l-0.026,0.014l-0.026,0.013l-0.026,0.013l-0.026,0.011l-0.026,0.011l-0.026,0.01l-0.027,0.009l-0.027,0.009l-0.026,0.008l-0.028,0.007l-0.027,0.006l-0.026,0.006l-0.027,0.005l-0.026,0.004l-0.027,0.003l-0.027,0.003l-0.026,0.002l-0.026,0.002l-0.026,0.001l-0.026,0l-0.025,0l-0.026,-0.001l-0.024,-0.002l-0.025,-0.002l-0.025,-0.002l-0.024,-0.003l-0.024,-0.003l-0.023,-0.004l-0.023,-0.004l-0.023,-0.005l-0.023,-0.005l-0.022,-0.005l-0.022,-0.006l-0.021,-0.006l-0.022,-0.006l-0.021,-0.007l-0.021,-0.007l-0.02,-0.007l-0.021,-0.007l-0.02,-0.008l-0.019,-0.007l-0.021,-0.009l-0.036,-0.015l-0.037,-0.018l-0.036,-0.017l-0.034,-0.019l-0.034,-0.018l-0.033,-0.019l-0.031,-0.019l-0.031,-0.02l-0.03,-0.02l-0.03,-0.02l-0.028,-0.02l-0.027,-0.02l-0.027,-0.02l-0.026,-0.02l-0.025,-0.02l-0.024,-0.02l-0.024,-0.02l-0.022,-0.019l-0.022,-0.019l-0.022,-0.019l-0.02,-0.019l-0.019,-0.018l-0.02,-0.018l-0.033,-0.033l-0.032,-0.032l-0.028,-0.029l-0.024,-0.026l-0.021,-0.023l-0.017,-0.02l-0.015,-0.016l-0.01,-0.013l-0.014,-0.017l-0.012,-0.017l-0.013,-0.018l-0.011,-0.018l-0.011,-0.019l-0.01,-0.019l-0.009,-0.019l-0.009,-0.02l-0.007,-0.02l-0.007,-0.021l-0.006,-0.021l-0.005,-0.021l-0.005,-0.021l-0.003,-0.021l-0.003,-0.021l-0.002,-0.022l-0.001,-0.021l0,-0.022l0,-0.022l0.002,-0.021l0.002,-0.022l0.003,-0.021l0.004,-0.021l0.005,-0.021l0.006,-0.021l0.006,-0.021l0.007,-0.02l0.009,-0.02l0.008,-0.02l0.01,-0.019l0.01,-0.019l0.011,-0.019l0.012,-0.018l0.013,-0.017l0.013,-0.017l0.014,-0.017l0.014,-0.016l0.015,-0.015l1.611,-1.581l0.016,-0.015l0.016,-0.014l0.017,-0.014l0.018,-0.013l0.017,-0.012l0.019,-0.012l0.019,-0.011l0.019,-0.01l0.02,-0.009l0.02,-0.008l0.02,-0.008l0.021,-0.007l0.021,-0.006l0.021,-0.005l0.021,-0.005l0.021,-0.003l0.022,-0.003l0.022,-0.002l0.021,-0.001l0.022,0l0.022,0.001Zm-1.64,2.13l0.007,0.009l0.01,0.011l0.012,0.014l0.016,0.018l0.02,0.021l0.022,0.023l0.025,0.025l0.028,0.028l0.015,0.014l0.015,0.014l0.017,0.015l0.016,0.015l0.018,0.016l0.018,0.015l0.018,0.015l0.019,0.016l0.02,0.015l0.019,0.016l0.021,0.015l0.021,0.015l0.021,0.015l0.022,0.015l0.022,0.015l0.022,0.014l0.023,0.014l0.023,0.013l0.024,0.013l0.023,0.013l0.025,0.012l0.024,0.011l0.024,0.011l0.013,0.005l0.012,0.005l0.013,0.004l0.012,0.005l0.013,0.004l0.012,0.004l0.013,0.004l0.013,0.004l0.013,0.004l0.012,0.003l0.013,0.003l0.013,0.003l0.013,0.002l0.013,0.003l0.013,0.002l0.013,0.002l0.013,0.001l0.013,0.001l0.013,0.001l0.013,0.001l0.013,0.001l0.013,0l0.013,0l0.013,-0.001l0.013,-0.001l0.013,-0.001l0.013,-0.001l0.013,-0.002l0.013,-0.002l0.013,-0.002l0.013,-0.003l0.013,-0.003l0.013,-0.003l0.013,-0.004l0.013,-0.004l0.013,-0.005l0.013,-0.005l0.013,-0.005l0.013,-0.006l0.013,-0.006l0.012,-0.006l0.013,-0.007l0.013,-0.007l0.013,-0.008l0.012,-0.008l0.013,-0.009l0.096,-0.067l0.044,-0.031l0.043,-0.031l0.041,-0.029l0.038,-0.028l0.037,-0.028l0.035,-0.026l0.034,-0.026l0.032,-0.025l0.031,-0.025l0.029,-0.025l0.028,-0.025l0.014,-0.012l0.013,-0.012l0.013,-0.012l0.013,-0.012l0.012,-0.013l0.013,-0.012l0.012,-0.013l0.012,-0.012l0.011,-0.013l0.012,-0.012l0.011,-0.013l0.012,-0.013l0.011,-0.013l0.011,-0.014l0.011,-0.013l0.01,-0.014l0.011,-0.014l0.011,-0.014l0.01,-0.015l0.01,-0.014l0.011,-0.015l0.01,-0.015l0.01,-0.016l0.011,-0.016l0.02,-0.033l0.021,-0.034l0.021,-0.035l0.021,-0.038l0.021,-0.039l0.022,-0.041l0.023,-0.043l0.005,-0.011l0.006,-0.012l0.004,-0.011l0.005,-0.011l0.004,-0.011l0.004,-0.011l0.003,-0.012l0.003,-0.011l0.003,-0.011l0.003,-0.012l0.002,-0.011l0.002,-0.012l0.001,-0.011l0.002,-0.012l0,-0.011l0.001,-0.012l0.001,-0.011l0,-0.012l0,-0.011l-0.001,-0.012l-0.001,-0.011l-0.001,-0.012l-0.001,-0.012l-0.001,-0.011l-0.002,-0.012l-0.002,-0.011l-0.002,-0.012l-0.002,-0.011l-0.003,-0.012l-0.003,-0.011l-0.003,-0.012l-0.003,-0.011l-0.004,-0.012l-0.003,-0.011l-0.004,-0.012l-0.004,-0.011l-0.009,-0.023l-0.009,-0.022l-0.01,-0.023l-0.011,-0.022l-0.011,-0.022l-0.011,-0.022l-0.013,-0.021l-0.012,-0.022l-0.013,-0.021l-0.014,-0.021l-0.014,-0.02l-0.014,-0.021l-0.014,-0.02l-0.015,-0.019l-0.014,-0.02l-0.015,-0.019l-0.015,-0.018l-0.015,-0.019l-0.015,-0.017l-0.015,-0.018l-0.015,-0.017l-0.015,-0.016l-0.015,-0.016l-0.015,-0.016l-0.014,-0.015l-0.014,-0.014l-0.027,-0.027l-0.026,-0.025l-0.024,-0.023l-0.021,-0.02l-0.02,-0.017l-0.016,-0.014l-0.014,-0.012l-0.009,-0.008l-0.009,-0.007l-1.61,1.581Z"/><path d="M63.533,7.508l-0.829,-0.781c0,0 1.489,-2.914 1.648,-2.903c1.257,0.088 4.036,-1.187 4.036,-1.187c-3.37,2.603 -2.789,2.75 -2.789,2.75l-0.045,0.093l0.093,-0.045c0,0 0.149,0.58 2.741,-2.798c0,0 -1.266,2.783 -1.174,4.039c0.011,0.159 -2.897,1.658 -2.897,1.658l-0.784,-0.826Z"/><path d="M68.402,2.087l0.005,0l0.012,0.001l0.013,0l0.005,0.001l0.005,0l0.012,0.002l0.012,0.001l0.005,0.001l0.005,0.001l0.012,0.002l0.013,0.002l0.004,0.001l0.005,0.001l0.012,0.003l0.012,0.003l0.005,0.002l0.005,0.001l0.012,0.004l0.012,0.004l0.004,0.001l0.005,0.002l0.011,0.005l0.012,0.004l0.005,0.002l0.004,0.002l0.011,0.005l0.012,0.005l0.004,0.003l0.005,0.002l0.01,0.006l0.011,0.006l0.005,0.003l0.004,0.002l0.01,0.007l0.011,0.006l0.004,0.003l0.004,0.003l0.01,0.007l0.01,0.007l0.004,0.003l0.004,0.003l0.01,0.008l0.009,0.008l0.004,0.004l0.004,0.003l0.009,0.008l0.009,0.009l0.003,0.003l0.004,0.004l0.008,0.009l0.009,0.009l0.003,0.004l0.004,0.003l0.007,0.01l0.008,0.009l0.003,0.004l0.004,0.004l0.007,0.01l0.007,0.01l0.003,0.004l0.003,0.005l0.006,0.01l0.007,0.01l0.003,0.005l0.002,0.004l0.006,0.011l0.006,0.011l0.002,0.004l0.003,0.005l0.005,0.011l0.005,0.011l0.002,0.005l0.002,0.004l0.005,0.012l0.004,0.011l0.002,0.005l0.002,0.005l0.003,0.012l0.004,0.011l0.001,0.005l0.002,0.005l0.003,0.012l0.003,0.012l0.001,0.005l0.001,0.005l0.002,0.012l0.003,0.012l0,0.005l0.001,0.005l0.002,0.012l0.001,0.013l0.001,0.005l0,0.005l0.001,0.012l0.001,0.012l0,0.005l0,0.005l0,0.013l0,0.012l0,0.005l0,0.005l-0.001,0.012l-0.001,0.013l-0.001,0.005l0,0.005l-0.002,0.012l-0.001,0.012l-0.001,0.005l-0.001,0.005l-0.002,0.012l-0.003,0.012l-0.001,0.005l-0.001,0.005l-0.003,0.012l-0.003,0.012l-0.002,0.005l-0.001,0.005l-0.004,0.011l-0.004,0.012l-0.002,0.005l-0.001,0.005l-0.005,0.011l-0.004,0.012l-0.003,0.004l-0.002,0.005l-0.013,0.03l-0.016,0.036l-0.023,0.051l-0.027,0.063l-0.033,0.075l-0.037,0.088l-0.041,0.097l-0.044,0.108l-0.048,0.116l-0.025,0.062l-0.025,0.063l-0.026,0.065l-0.027,0.067l-0.026,0.069l-0.027,0.07l-0.028,0.071l-0.027,0.073l-0.028,0.075l-0.028,0.075l-0.028,0.076l-0.028,0.077l-0.027,0.079l-0.028,0.078l-0.027,0.08l-0.027,0.08l-0.027,0.08l-0.026,0.08l-0.026,0.081l-0.026,0.081l-0.025,0.081l-0.024,0.08l-0.023,0.081l-0.023,0.08l-0.022,0.079l-0.01,0.04l-0.011,0.039l-0.01,0.039l-0.01,0.039l-0.009,0.039l-0.01,0.039l-0.009,0.038l-0.009,0.038l-0.009,0.037l-0.008,0.038l-0.008,0.037l-0.007,0.036l-0.008,0.036l-0.007,0.037l-0.007,0.035l-0.006,0.035l-0.006,0.036l-0.006,0.034l-0.006,0.033l-0.005,0.033l-0.004,0.033l-0.005,0.033l-0.004,0.032l-0.004,0.03l-0.003,0.032l-0.003,0.029l-0.002,0.029l-0.003,0.03l-0.001,0.028l-0.002,0.026l-0.001,0.026l-0.001,0.026l0,0.024l0,0.025l0,0.022l0.001,0.023l0.001,0.021l0.003,0.041l0,0.02l-0.001,0.026l-0.002,0.025l-0.003,0.025l0,0.002l-0.005,0.033l-0.008,0.031l-0.003,0.014l-0.005,0.014l-0.008,0.025l-0.009,0.024l-0.011,0.023l-0.004,0.01l-0.014,0.028l-0.015,0.023l-0.015,0.023l-0.016,0.023l-0.015,0.019l-0.023,0.028l-0.022,0.023l-0.022,0.022l-0.02,0.019l-0.018,0.015l-0.019,0.017l-0.02,0.015l-0.018,0.014l-0.017,0.014l-0.019,0.014l-0.02,0.014l-0.037,0.026l-0.041,0.028l-0.043,0.028l-0.044,0.029l-0.046,0.029l-0.049,0.03l-0.05,0.031l-0.053,0.032l-0.054,0.032l-0.056,0.033l-0.058,0.034l-0.059,0.034l-0.06,0.035l-0.062,0.036l-0.064,0.036l-0.065,0.036l-0.13,0.074l-0.135,0.074l-0.136,0.075l-0.138,0.075l-0.137,0.075l-0.136,0.073l-0.133,0.072l-0.131,0.069l-0.126,0.067l-0.121,0.064l-0.221,0.117l-0.187,0.098l-0.144,0.075l-0.126,0.065l-0.03,0.014l-0.032,0.013l-0.032,0.011l-0.032,0.009l-0.033,0.006l-0.034,0.005l-0.034,0.003l-0.033,0l-0.034,-0.001l-0.034,-0.004l-0.033,-0.005l-0.033,-0.008l-0.032,-0.01l-0.032,-0.011l-0.031,-0.014l-0.03,-0.015l-0.029,-0.017l-0.028,-0.019l-0.027,-0.021l-0.025,-0.022l-0.024,-0.024l-0.774,-0.815l-0.817,-0.771l-0.024,-0.024l-0.023,-0.025l-0.02,-0.027l-0.019,-0.028l-0.018,-0.029l-0.015,-0.03l-0.014,-0.031l-0.012,-0.031l-0.009,-0.033l-0.008,-0.033l-0.006,-0.033l-0.004,-0.033l-0.001,-0.034l0,-0.034l0.003,-0.034l0.004,-0.033l0.007,-0.033l0.009,-0.033l0.01,-0.032l0.013,-0.031l0.015,-0.031l0.064,-0.125l0.075,-0.145l0.097,-0.187l0.116,-0.222l0.063,-0.121l0.067,-0.127l0.069,-0.13l0.072,-0.134l0.072,-0.137l0.075,-0.137l0.074,-0.137l0.074,-0.137l0.074,-0.135l0.073,-0.131l0.037,-0.065l0.035,-0.063l0.036,-0.063l0.035,-0.06l0.033,-0.059l0.034,-0.058l0.033,-0.056l0.032,-0.054l0.032,-0.053l0.031,-0.051l0.03,-0.048l0.029,-0.046l0.028,-0.045l0.028,-0.043l0.028,-0.04l0.026,-0.039l0.015,-0.02l0.013,-0.018l0.013,-0.017l0.015,-0.019l0.015,-0.019l0.015,-0.018l0.017,-0.019l0.018,-0.02l0.022,-0.023l0.025,-0.023l0.028,-0.024l0.036,-0.027l0.023,-0.014l0.023,-0.014l0.023,-0.013l0.018,-0.009l0.037,-0.016l0.022,-0.008l0.024,-0.008l0.024,-0.006l0.002,-0.001l0.03,-0.006l0.029,-0.005l0.002,-0.001l0.025,-0.002l0.024,-0.002l0.024,-0.001l0.019,0l0.042,0.003l0.021,0.001l0.022,0l0.023,0.001l0.024,0l0.025,-0.001l0.025,-0.001l0.027,-0.001l0.027,-0.001l0.028,-0.002l0.028,-0.003l0.03,-0.002l0.029,-0.003l0.031,-0.004l0.031,-0.003l0.032,-0.005l0.032,-0.004l0.033,-0.005l0.033,-0.005l0.034,-0.006l0.035,-0.006l0.034,-0.006l0.035,-0.006l0.036,-0.007l0.036,-0.008l0.036,-0.007l0.037,-0.008l0.037,-0.008l0.037,-0.008l0.038,-0.009l0.038,-0.009l0.038,-0.009l0.039,-0.01l0.038,-0.01l0.039,-0.01l0.039,-0.01l0.039,-0.011l0.04,-0.01l0.079,-0.023l0.08,-0.022l0.08,-0.024l0.081,-0.025l0.081,-0.025l0.08,-0.025l0.081,-0.027l0.081,-0.026l0.08,-0.027l0.08,-0.027l0.079,-0.028l0.079,-0.028l0.078,-0.028l0.077,-0.028l0.076,-0.028l0.075,-0.028l0.074,-0.028l0.073,-0.028l0.071,-0.028l0.071,-0.027l0.068,-0.027l0.067,-0.027l0.065,-0.026l0.063,-0.025l0.061,-0.025l0.117,-0.048l0.108,-0.045l0.097,-0.042l0.087,-0.037l0.075,-0.033l0.064,-0.028l0.05,-0.022l0.037,-0.016l0.03,-0.014l0.004,-0.002l0.005,-0.002l0.011,-0.005l0.012,-0.005l0.004,-0.001l0.005,-0.002l0.012,-0.004l0.012,-0.004l0.004,-0.001l0.005,-0.002l0.012,-0.003l0.012,-0.003l0.005,-0.001l0.005,-0.001l0.012,-0.003l0.012,-0.002l0.005,-0.001l0.005,-0.001l0.012,-0.001l0.013,-0.002l0.005,0l0.005,-0.001l0.012,-0.001l0.012,-0.001l0.005,0l0.005,0l0.013,0l0.012,0l0.005,0Zm-0.045,0.564l-0.039,0.017l-0.052,0.023l-0.065,0.029l-0.078,0.034l-0.089,0.038l-0.1,0.042l-0.11,0.047l-0.119,0.049l-0.063,0.025l-0.064,0.027l-0.067,0.026l-0.068,0.027l-0.071,0.028l-0.071,0.028l-0.074,0.028l-0.074,0.029l-0.076,0.029l-0.078,0.029l-0.078,0.028l-0.079,0.029l-0.081,0.029l-0.081,0.029l-0.082,0.028l-0.082,0.029l-0.083,0.028l-0.084,0.027l-0.083,0.027l-0.084,0.027l-0.085,0.026l-0.084,0.026l-0.084,0.025l-0.084,0.024l-0.083,0.023l-0.042,0.011l-0.042,0.012l-0.041,0.01l-0.042,0.011l-0.041,0.011l-0.041,0.01l-0.041,0.01l-0.041,0.009l-0.04,0.01l-0.04,0.009l-0.041,0.009l-0.039,0.008l-0.04,0.008l-0.04,0.008l-0.039,0.008l-0.039,0.007l-0.038,0.007l-0.039,0.007l-0.038,0.006l-0.037,0.006l-0.037,0.005l-0.037,0.006l-0.037,0.004l-0.036,0.005l-0.036,0.004l-0.036,0.003l-0.035,0.003l-0.034,0.003l-0.035,0.003l-0.033,0.002l-0.034,0.001l-0.032,0.001l-0.033,0.001l-0.032,0l-0.031,-0.001l-0.031,0l-0.03,-0.002l-0.03,-0.002l-0.002,0l-0.002,0.001l-0.002,0l-0.002,0.001l-0.003,0.001l-0.002,0.001l-0.006,0.004l-0.005,0.004l-0.007,0.006l-0.006,0.006l-0.008,0.007l-0.007,0.008l-0.008,0.01l-0.008,0.01l-0.009,0.011l-0.009,0.011l-0.01,0.013l-0.01,0.014l-0.01,0.014l-0.022,0.031l-0.023,0.034l-0.024,0.037l-0.026,0.04l-0.027,0.043l-0.028,0.045l-0.029,0.047l-0.029,0.05l-0.031,0.052l-0.032,0.054l-0.032,0.056l-0.034,0.058l-0.033,0.059l-0.035,0.061l-0.035,0.062l-0.035,0.063l-0.072,0.129l-0.073,0.133l-0.074,0.135l-0.074,0.136l-0.073,0.137l-0.072,0.135l-0.071,0.133l-0.069,0.129l-0.066,0.126l-0.063,0.12l-0.115,0.221l-0.097,0.186l-0.074,0.143l-0.064,0.126l0.829,0.781l0.784,0.826l0.125,-0.064l0.143,-0.075l0.186,-0.097l0.22,-0.116l0.12,-0.064l0.126,-0.066l0.129,-0.069l0.133,-0.072l0.135,-0.072l0.136,-0.074l0.136,-0.074l0.134,-0.074l0.133,-0.074l0.129,-0.072l0.063,-0.036l0.062,-0.035l0.061,-0.035l0.059,-0.034l0.057,-0.033l0.056,-0.033l0.054,-0.031l0.052,-0.031l0.05,-0.031l0.047,-0.029l0.045,-0.028l0.043,-0.027l0.039,-0.025l0.037,-0.025l0.035,-0.023l0.03,-0.022l0.015,-0.01l0.013,-0.01l0.013,-0.01l0.012,-0.009l0.011,-0.009l0.01,-0.008l0.009,-0.008l0.008,-0.008l0.007,-0.007l0.007,-0.007l0.005,-0.006l0.004,-0.006l0.004,-0.005l0.001,-0.003l0.001,-0.002l0.001,-0.002l0,-0.003l0.001,-0.002l0,-0.002l-0.002,-0.029l-0.002,-0.031l-0.001,-0.03l0,-0.032l0,-0.032l0,-0.032l0.001,-0.033l0.002,-0.033l0.002,-0.034l0.002,-0.034l0.002,-0.035l0.004,-0.035l0.003,-0.035l0.004,-0.036l0.004,-0.036l0.005,-0.037l0.005,-0.037l0.005,-0.037l0.006,-0.038l0.006,-0.038l0.007,-0.038l0.006,-0.039l0.008,-0.039l0.007,-0.039l0.008,-0.04l0.008,-0.039l0.008,-0.04l0.009,-0.04l0.009,-0.041l0.009,-0.04l0.01,-0.041l0.01,-0.041l0.01,-0.041l0.01,-0.041l0.01,-0.042l0.011,-0.041l0.011,-0.042l0.011,-0.042l0.023,-0.083l0.024,-0.084l0.025,-0.085l0.025,-0.084l0.026,-0.084l0.026,-0.084l0.027,-0.084l0.028,-0.084l0.027,-0.083l0.028,-0.082l0.029,-0.082l0.028,-0.081l0.029,-0.081l0.028,-0.079l0.029,-0.079l0.028,-0.077l0.029,-0.076l0.028,-0.075l0.028,-0.073l0.028,-0.072l0.027,-0.071l0.027,-0.068l0.027,-0.067l0.026,-0.065l0.025,-0.063l0.049,-0.119l0.046,-0.11l0.042,-0.1l0.038,-0.089l0.033,-0.078l0.029,-0.065l0.023,-0.053l0.017,-0.038l0.014,-0.031l-0.12,0.155l-0.116,0.15l-0.113,0.144l-0.109,0.139l-0.106,0.133l-0.102,0.128l-0.1,0.123l-0.096,0.118l-0.093,0.113l-0.09,0.108l-0.086,0.103l-0.043,0.05l-0.041,0.048l-0.041,0.048l-0.04,0.046l-0.04,0.046l-0.038,0.044l-0.038,0.043l-0.037,0.042l-0.037,0.041l-0.036,0.04l-0.035,0.039l-0.034,0.038l-0.034,0.037l-0.033,0.036l-0.033,0.035l-0.031,0.034l-0.032,0.033l-0.03,0.032l-0.03,0.031l-0.029,0.03l-0.029,0.029l-0.028,0.029l-0.027,0.027l-0.027,0.027l-0.026,0.026l-0.026,0.025l-0.025,0.024l-0.025,0.023l-0.024,0.023l-0.023,0.021l-0.023,0.021l-0.022,0.021l-0.022,0.019l-0.021,0.019l-0.021,0.018l-0.02,0.017l-0.019,0.017l-0.02,0.016l-0.018,0.015l-0.018,0.014l-0.018,0.014l-0.017,0.014l-0.017,0.012l-0.016,0.013l-0.016,0.011l-0.015,0.011l-0.015,0.01l-0.014,0.01l-0.014,0.009l-0.014,0.009l-0.013,0.008l-0.013,0.008l-0.012,0.007l-0.012,0.007l-0.012,0.006l-0.011,0.006l-0.01,0.005l-0.011,0.005l-0.01,0.005l-0.009,0.004l-0.01,0.004l-0.009,0.003l-0.008,0.003l-0.008,0.003l-0.008,0.002l-0.008,0.002l-0.007,0.002l-0.007,0.002l-0.007,0.001l-0.006,0.001l-0.006,0l-0.006,0.001l-0.006,0l-0.005,0l-0.005,0l-0.004,-0.001l-0.005,0l-0.004,-0.001l-0.004,-0.001l-0.004,-0.001l-0.003,-0.001l-0.004,-0.002l-0.006,-0.003l-0.005,-0.003l-0.004,-0.003l-0.004,-0.004l-0.003,-0.003l-0.003,-0.003l-0.002,-0.004l-0.001,-0.002l-0.002,-0.004l-0.001,-0.002l-0.093,0.045l0.045,-0.093l-0.002,-0.001l-0.004,-0.002l-0.003,-0.001l-0.003,-0.002l-0.003,-0.003l-0.004,-0.003l-0.003,-0.004l-0.003,-0.004l-0.004,-0.005l-0.003,-0.006l-0.001,-0.003l-0.001,-0.004l-0.001,-0.004l-0.001,-0.004l-0.001,-0.004l-0.001,-0.004l0,-0.005l0,-0.005l0,-0.005l0,-0.006l0,-0.006l0.001,-0.006l0.001,-0.006l0.001,-0.007l0.001,-0.007l0.002,-0.007l0.002,-0.008l0.002,-0.007l0.003,-0.009l0.003,-0.008l0.003,-0.009l0.004,-0.01l0.004,-0.009l0.005,-0.01l0.005,-0.011l0.005,-0.01l0.006,-0.011l0.006,-0.012l0.007,-0.012l0.007,-0.012l0.008,-0.013l0.008,-0.013l0.009,-0.014l0.009,-0.014l0.01,-0.014l0.01,-0.015l0.011,-0.015l0.011,-0.016l0.012,-0.017l0.013,-0.016l0.013,-0.017l0.014,-0.018l0.014,-0.018l0.016,-0.019l0.015,-0.019l0.017,-0.02l0.017,-0.02l0.018,-0.021l0.019,-0.021l0.019,-0.022l0.02,-0.022l0.021,-0.023l0.022,-0.024l0.022,-0.024l0.024,-0.024l0.024,-0.025l0.025,-0.026l0.025,-0.026l0.027,-0.027l0.027,-0.028l0.029,-0.028l0.029,-0.029l0.03,-0.029l0.031,-0.03l0.032,-0.031l0.033,-0.031l0.034,-0.032l0.034,-0.033l0.036,-0.033l0.037,-0.034l0.038,-0.034l0.039,-0.036l0.039,-0.035l0.041,-0.037l0.042,-0.037l0.043,-0.039l0.044,-0.038l0.046,-0.04l0.046,-0.04l0.047,-0.041l0.049,-0.042l0.05,-0.042l0.103,-0.087l0.107,-0.09l0.113,-0.094l0.117,-0.096l0.123,-0.1l0.127,-0.103l0.133,-0.107l0.139,-0.109l0.144,-0.113l0.149,-0.117l0.155,-0.12l-0.031,0.014Z" style="fill:#fff;"/><path d="M64.076,8.474l-1.537,-1.49c0,0 -9.591,6.873 -12.306,11.979c-0.013,0.023 1.674,1.661 1.674,1.661c0,0 4.963,-2.58 12.169,-12.15Z"/><path d="M62.579,6.435l0.054,0.007l0.054,0.012l0.052,0.017l0.05,0.023l0.047,0.027l0.045,0.032l0.041,0.036l1.537,1.49l0.037,0.039l0.032,0.042l0.028,0.045l0.024,0.047l0.019,0.05l0.014,0.051l0.009,0.052l0.004,0.053l-0.001,0.053l-0.006,0.053l-0.011,0.051l-0.016,0.051l-0.021,0.049l-0.026,0.046l-0.029,0.044l-0.085,0.112l-0.085,0.112l-0.084,0.111l-0.084,0.111l-0.084,0.11l-0.084,0.109l-0.084,0.109l-0.083,0.108l-0.084,0.108l-0.083,0.106l-0.082,0.107l-0.083,0.105l-0.082,0.105l-0.082,0.104l-0.082,0.104l-0.082,0.103l-0.081,0.103l-0.082,0.102l-0.081,0.101l-0.081,0.101l-0.08,0.1l-0.081,0.099l-0.08,0.099l-0.08,0.098l-0.079,0.098l-0.08,0.097l-0.079,0.096l-0.079,0.096l-0.079,0.095l-0.078,0.095l-0.079,0.094l-0.078,0.094l-0.078,0.092l-0.077,0.093l-0.077,0.091l-0.078,0.092l-0.077,0.09l-0.076,0.09l-0.077,0.089l-0.076,0.089l-0.076,0.088l-0.075,0.088l-0.076,0.087l-0.075,0.087l-0.075,0.085l-0.075,0.086l-0.074,0.085l-0.074,0.084l-0.074,0.084l-0.074,0.083l-0.073,0.082l-0.074,0.082l-0.072,0.081l-0.073,0.082l-0.145,0.159l-0.143,0.158l-0.143,0.156l-0.141,0.153l-0.141,0.152l-0.139,0.149l-0.139,0.147l-0.137,0.145l-0.136,0.142l-0.135,0.141l-0.134,0.138l-0.133,0.137l-0.131,0.134l-0.131,0.133l-0.129,0.13l-0.128,0.128l-0.128,0.126l-0.126,0.125l-0.124,0.122l-0.124,0.12l-0.123,0.118l-0.121,0.116l-0.12,0.115l-0.119,0.112l-0.118,0.111l-0.116,0.108l-0.115,0.107l-0.114,0.105l-0.113,0.103l-0.111,0.101l-0.111,0.099l-0.109,0.098l-0.107,0.095l-0.107,0.094l-0.105,0.092l-0.104,0.09l-0.102,0.089l-0.101,0.087l-0.1,0.084l-0.099,0.084l-0.097,0.081l-0.096,0.08l-0.094,0.078l-0.094,0.077l-0.091,0.074l-0.091,0.073l-0.089,0.072l-0.087,0.07l-0.087,0.068l-0.084,0.067l-0.084,0.064l-0.082,0.064l-0.08,0.062l-0.08,0.06l-0.077,0.059l-0.076,0.057l-0.075,0.056l-0.074,0.054l-0.071,0.053l-0.071,0.051l-0.068,0.05l-0.068,0.048l-0.066,0.047l-0.064,0.046l-0.063,0.044l-0.061,0.042l-0.06,0.041l-0.058,0.04l-0.056,0.039l-0.055,0.037l-0.054,0.036l-0.052,0.034l-0.05,0.033l-0.049,0.032l-0.047,0.031l-0.045,0.029l-0.045,0.028l-0.082,0.052l-0.076,0.048l-0.07,0.042l-0.063,0.038l-0.056,0.033l-0.05,0.029l-0.042,0.024l-0.036,0.02l-0.028,0.016l-0.021,0.012l-0.017,0.009l-0.049,0.022l-0.05,0.018l-0.051,0.013l-0.053,0.008l-0.053,0.003l-0.053,-0.002l-0.053,-0.008l-0.052,-0.012l-0.05,-0.018l-0.049,-0.022l-0.046,-0.027l-0.043,-0.031l-0.04,-0.035l-0.073,-0.071l-0.191,-0.186l-0.27,-0.264l-0.153,-0.149l-0.157,-0.154l-0.157,-0.155l-0.153,-0.15l-0.142,-0.141l-0.066,-0.066l-0.062,-0.062l-0.057,-0.058l-0.052,-0.052l-0.047,-0.048l-0.041,-0.042l-0.034,-0.036l-0.017,-0.019l-0.016,-0.017l-0.018,-0.021l-0.024,-0.031l-0.014,-0.021l-0.029,-0.046l-0.023,-0.048l-0.001,-0.002l-0.016,-0.041l-0.012,-0.043l-0.009,-0.043l-0.005,-0.045l-0.002,-0.044l0,-0.001l0.002,-0.054l0.008,-0.053l0.013,-0.053l0.019,-0.051l0.023,-0.048l0.033,-0.062l0.035,-0.064l0.035,-0.063l0.035,-0.064l0.037,-0.063l0.037,-0.064l0.037,-0.064l0.038,-0.063l0.039,-0.065l0.039,-0.064l0.04,-0.064l0.04,-0.064l0.041,-0.064l0.042,-0.064l0.042,-0.064l0.042,-0.065l0.043,-0.064l0.043,-0.065l0.044,-0.064l0.045,-0.065l0.045,-0.064l0.045,-0.065l0.046,-0.065l0.047,-0.065l0.047,-0.065l0.047,-0.064l0.048,-0.065l0.048,-0.065l0.049,-0.065l0.049,-0.065l0.05,-0.065l0.05,-0.066l0.05,-0.065l0.051,-0.065l0.051,-0.065l0.052,-0.065l0.052,-0.066l0.053,-0.065l0.053,-0.065l0.053,-0.065l0.053,-0.065l0.055,-0.066l0.054,-0.065l0.055,-0.066l0.055,-0.065l0.055,-0.065l0.056,-0.065l0.056,-0.066l0.057,-0.065l0.057,-0.065l0.057,-0.066l0.057,-0.065l0.058,-0.065l0.058,-0.065l0.059,-0.065l0.058,-0.066l0.059,-0.065l0.059,-0.065l0.06,-0.065l0.06,-0.065l0.06,-0.065l0.06,-0.065l0.061,-0.065l0.06,-0.065l0.062,-0.064l0.061,-0.065l0.061,-0.065l0.062,-0.064l0.062,-0.065l0.062,-0.064l0.063,-0.065l0.062,-0.064l0.063,-0.064l0.063,-0.065l0.063,-0.064l0.064,-0.064l0.127,-0.128l0.128,-0.127l0.128,-0.127l0.129,-0.127l0.13,-0.126l0.13,-0.126l0.13,-0.125l0.131,-0.125l0.131,-0.124l0.132,-0.124l0.131,-0.123l0.132,-0.123l0.132,-0.122l0.132,-0.121l0.132,-0.121l0.132,-0.12l0.132,-0.119l0.132,-0.119l0.132,-0.117l0.131,-0.117l0.132,-0.116l0.131,-0.116l0.131,-0.114l0.13,-0.114l0.13,-0.112l0.13,-0.112l0.128,-0.111l0.129,-0.11l0.128,-0.109l0.127,-0.107l0.126,-0.107l0.126,-0.106l0.125,-0.104l0.124,-0.104l0.123,-0.102l0.123,-0.101l0.121,-0.1l0.12,-0.099l0.119,-0.097l0.118,-0.097l0.117,-0.095l0.116,-0.093l0.114,-0.092l0.113,-0.091l0.112,-0.09l0.11,-0.088l0.109,-0.086l0.108,-0.086l0.106,-0.083l0.104,-0.083l0.102,-0.08l0.101,-0.079l0.197,-0.154l0.189,-0.146l0.182,-0.141l0.174,-0.133l0.165,-0.126l0.156,-0.118l0.147,-0.112l0.138,-0.103l0.128,-0.096l0.117,-0.087l0.107,-0.079l0.095,-0.071l0.085,-0.062l0.132,-0.097l0.082,-0.059l0.028,-0.02l0.046,-0.03l0.049,-0.025l0.051,-0.02l0.053,-0.015l0.054,-0.01l0.054,-0.004l0.055,0.001Zm-0.067,0.569l-0.081,0.058l-0.131,0.096l-0.083,0.061l-0.095,0.07l-0.106,0.078l-0.116,0.087l-0.127,0.095l-0.137,0.103l-0.146,0.11l-0.155,0.118l-0.164,0.125l-0.173,0.132l-0.18,0.14l-0.188,0.146l-0.196,0.152l-0.1,0.079l-0.102,0.08l-0.104,0.081l-0.105,0.084l-0.107,0.084l-0.108,0.086l-0.109,0.088l-0.111,0.089l-0.113,0.09l-0.114,0.092l-0.115,0.093l-0.116,0.094l-0.117,0.096l-0.118,0.096l-0.12,0.099l-0.12,0.099l-0.122,0.1l-0.122,0.102l-0.123,0.103l-0.124,0.104l-0.125,0.104l-0.126,0.106l-0.126,0.108l-0.127,0.108l-0.128,0.109l-0.128,0.11l-0.128,0.111l-0.129,0.111l-0.13,0.113l-0.129,0.114l-0.13,0.114l-0.131,0.115l-0.13,0.116l-0.131,0.117l-0.131,0.118l-0.131,0.118l-0.131,0.119l-0.131,0.119l-0.13,0.121l-0.131,0.12l-0.131,0.122l-0.13,0.122l-0.13,0.122l-0.13,0.123l-0.129,0.124l-0.129,0.124l-0.129,0.124l-0.128,0.125l-0.128,0.125l-0.127,0.126l-0.126,0.126l-0.126,0.126l-0.062,0.064l-0.063,0.063l-0.062,0.063l-0.062,0.064l-0.062,0.063l-0.061,0.064l-0.062,0.063l-0.061,0.064l-0.061,0.064l-0.06,0.064l-0.061,0.063l-0.06,0.064l-0.06,0.064l-0.059,0.064l-0.06,0.064l-0.059,0.064l-0.059,0.064l-0.058,0.064l-0.059,0.064l-0.058,0.064l-0.057,0.064l-0.058,0.064l-0.057,0.064l-0.056,0.064l-0.057,0.064l-0.056,0.064l-0.056,0.064l-0.055,0.065l-0.055,0.064l-0.055,0.064l-0.054,0.064l-0.054,0.064l-0.054,0.064l-0.053,0.063l-0.053,0.064l-0.053,0.064l-0.052,0.064l-0.051,0.064l-0.052,0.064l-0.051,0.063l-0.05,0.064l-0.05,0.063l-0.05,0.064l-0.049,0.063l-0.049,0.064l-0.048,0.063l-0.048,0.063l-0.047,0.064l-0.047,0.063l-0.046,0.063l-0.046,0.063l-0.046,0.063l-0.045,0.062l-0.044,0.063l-0.044,0.063l-0.044,0.062l-0.043,0.063l-0.042,0.062l-0.042,0.062l-0.042,0.062l-0.04,0.062l-0.041,0.062l-0.04,0.062l-0.039,0.061l-0.038,0.062l-0.039,0.061l-0.037,0.062l-0.037,0.061l-0.036,0.061l-0.036,0.06l-0.035,0.061l-0.035,0.061l-0.034,0.06l-0.033,0.06l-0.033,0.06l-0.032,0.06l0,0.001l0,0.002l0.003,0.004l0.006,0.007l0.007,0.009l0.01,0.011l0.012,0.013l0.03,0.031l0.037,0.039l0.045,0.045l0.05,0.051l0.056,0.057l0.061,0.061l0.066,0.065l0.141,0.14l0.152,0.149l0.156,0.154l0.157,0.154l0.152,0.149l0.27,0.263l0.191,0.186l0.072,0.07l0.015,-0.008l0.018,-0.009l0.025,-0.014l0.032,-0.018l0.039,-0.023l0.046,-0.026l0.052,-0.032l0.06,-0.035l0.066,-0.041l0.073,-0.045l0.08,-0.05l0.042,-0.027l0.044,-0.028l0.045,-0.03l0.047,-0.03l0.049,-0.033l0.05,-0.033l0.052,-0.035l0.053,-0.036l0.055,-0.037l0.057,-0.039l0.058,-0.04l0.059,-0.041l0.062,-0.043l0.062,-0.045l0.064,-0.045l0.066,-0.047l0.067,-0.049l0.069,-0.05l0.07,-0.052l0.072,-0.053l0.073,-0.054l0.075,-0.056l0.076,-0.058l0.077,-0.059l0.079,-0.061l0.081,-0.062l0.082,-0.064l0.083,-0.065l0.085,-0.067l0.086,-0.069l0.087,-0.07l0.089,-0.072l0.09,-0.073l0.092,-0.075l0.093,-0.077l0.094,-0.079l0.096,-0.08l0.097,-0.082l0.099,-0.084l0.099,-0.085l0.101,-0.087l0.103,-0.089l0.103,-0.091l0.105,-0.093l0.107,-0.094l0.107,-0.096l0.109,-0.098l0.11,-0.1l0.111,-0.102l0.113,-0.103l0.114,-0.105l0.115,-0.108l0.116,-0.109l0.117,-0.111l0.119,-0.113l0.12,-0.115l0.121,-0.117l0.122,-0.119l0.124,-0.121l0.125,-0.123l0.125,-0.125l0.127,-0.126l0.128,-0.129l0.13,-0.131l0.13,-0.133l0.132,-0.136l0.132,-0.137l0.134,-0.139l0.135,-0.141l0.136,-0.144l0.137,-0.145l0.138,-0.148l0.139,-0.15l0.14,-0.152l0.141,-0.155l0.143,-0.156l0.143,-0.159l0.072,-0.08l0.072,-0.081l0.073,-0.081l0.073,-0.082l0.073,-0.082l0.073,-0.083l0.074,-0.084l0.074,-0.084l0.074,-0.084l0.074,-0.086l0.075,-0.085l0.075,-0.087l0.075,-0.087l0.075,-0.087l0.076,-0.088l0.075,-0.089l0.077,-0.089l0.076,-0.09l0.076,-0.091l0.077,-0.091l0.077,-0.091l0.077,-0.092l0.078,-0.093l0.078,-0.093l0.078,-0.094l0.078,-0.095l0.078,-0.095l0.079,-0.096l0.079,-0.096l0.079,-0.097l0.079,-0.098l0.08,-0.098l0.08,-0.099l0.08,-0.099l0.08,-0.1l0.081,-0.101l0.08,-0.101l0.081,-0.102l0.081,-0.102l0.082,-0.103l0.081,-0.104l0.082,-0.104l0.082,-0.105l0.082,-0.105l0.083,-0.106l0.083,-0.107l0.082,-0.108l0.083,-0.108l0.084,-0.108l0.083,-0.11l0.084,-0.11l0.084,-0.11l0.084,-0.111l0.084,-0.112l-1.537,-1.49l-0.027,0.02Z" style="fill:#fff;"/><path d="M51.559,20.811l-1.581,-1.611c0,0 -0.813,0.666 -0.439,1.203c0.374,0.536 0.48,0.668 0.952,0.912c0.471,0.243 1.068,-0.504 1.068,-0.504Z"/><path d="M50.005,18.651l0.021,0.001l0.022,0.003l0.021,0.003l0.021,0.004l0.021,0.005l0.021,0.005l0.021,0.007l0.02,0.007l0.02,0.008l0.02,0.009l0.019,0.01l0.019,0.01l0.019,0.011l0.018,0.012l0.017,0.012l0.018,0.014l0.016,0.013l0.016,0.015l0.016,0.015l1.581,1.611l0.015,0.015l0.014,0.017l0.013,0.017l0.013,0.017l0.013,0.018l0.011,0.019l0.011,0.018l0.01,0.02l0.009,0.019l0.009,0.02l0.007,0.021l0.007,0.02l0.006,0.021l0.005,0.021l0.005,0.022l0.003,0.021l0.003,0.022l0.002,0.021l0.001,0.022l0,0.022l-0.001,0.021l-0.001,0.022l-0.003,0.022l-0.003,0.021l-0.004,0.021l-0.005,0.022l-0.006,0.02l-0.007,0.021l-0.007,0.021l-0.008,0.02l-0.009,0.019l-0.01,0.02l-0.011,0.019l-0.011,0.018l-0.012,0.018l-0.013,0.018l-0.013,0.017l-0.009,0.011l-0.013,0.015l-0.015,0.018l-0.018,0.02l-0.022,0.025l-0.025,0.027l-0.027,0.029l-0.03,0.031l-0.034,0.034l-0.018,0.017l-0.019,0.018l-0.019,0.018l-0.02,0.019l-0.021,0.019l-0.021,0.018l-0.022,0.019l-0.022,0.019l-0.024,0.02l-0.024,0.019l-0.025,0.02l-0.025,0.019l-0.026,0.019l-0.027,0.02l-0.027,0.018l-0.029,0.02l-0.03,0.019l-0.029,0.018l-0.031,0.018l-0.032,0.018l-0.033,0.018l-0.034,0.017l-0.034,0.016l-0.035,0.016l-0.037,0.015l-0.036,0.014l-0.021,0.007l-0.02,0.007l-0.019,0.006l-0.021,0.006l-0.02,0.006l-0.021,0.006l-0.021,0.005l-0.022,0.005l-0.022,0.004l-0.022,0.005l-0.022,0.003l-0.022,0.004l-0.024,0.002l-0.023,0.003l-0.024,0.002l-0.024,0.001l-0.024,0.001l-0.024,0l-0.025,0l-0.025,-0.001l-0.025,-0.001l-0.025,-0.002l-0.026,-0.003l-0.025,-0.004l-0.026,-0.004l-0.026,-0.005l-0.025,-0.005l-0.027,-0.007l-0.026,-0.007l-0.026,-0.008l-0.025,-0.008l-0.025,-0.01l-0.026,-0.01l-0.025,-0.011l-0.025,-0.011l-0.023,-0.012l-0.049,-0.025l-0.046,-0.025l-0.045,-0.025l-0.044,-0.024l-0.043,-0.025l-0.042,-0.026l-0.04,-0.025l-0.021,-0.014l-0.02,-0.013l-0.021,-0.014l-0.019,-0.014l-0.02,-0.014l-0.02,-0.014l-0.019,-0.014l-0.019,-0.015l-0.019,-0.015l-0.019,-0.015l-0.018,-0.015l-0.019,-0.015l-0.018,-0.016l-0.018,-0.016l-0.018,-0.016l-0.016,-0.016l-0.018,-0.016l-0.017,-0.018l-0.017,-0.016l-0.017,-0.017l-0.016,-0.018l-0.016,-0.017l-0.016,-0.017l-0.017,-0.019l-0.03,-0.034l-0.031,-0.036l-0.03,-0.038l-0.03,-0.038l-0.03,-0.038l-0.03,-0.04l-0.03,-0.041l-0.03,-0.041l-0.031,-0.043l-0.032,-0.045l-0.033,-0.046l-0.07,-0.1l-0.014,-0.021l-0.016,-0.024l-0.016,-0.027l-0.013,-0.024l-0.014,-0.024l-0.013,-0.027l-0.013,-0.027l-0.011,-0.025l-0.011,-0.027l-0.01,-0.026l-0.008,-0.025l-0.009,-0.027l-0.009,-0.029l-0.006,-0.026l-0.007,-0.026l-0.006,-0.028l-0.004,-0.026l-0.005,-0.028l-0.003,-0.027l-0.003,-0.024l-0.002,-0.027l-0.001,-0.026l-0.001,-0.027l0,-0.024l0,-0.025l0.001,-0.027l0.001,-0.026l0.002,-0.025l0.002,-0.022l0.003,-0.024l0.004,-0.024l0.003,-0.024l0.005,-0.025l0.004,-0.021l0.005,-0.022l0.006,-0.024l0.005,-0.022l0.006,-0.021l0.007,-0.021l0.006,-0.02l0.007,-0.023l0.008,-0.021l0.006,-0.017l0.008,-0.021l0.008,-0.021l0.008,-0.02l0.016,-0.036l0.017,-0.037l0.018,-0.036l0.018,-0.034l0.018,-0.034l0.019,-0.033l0.02,-0.032l0.02,-0.031l0.019,-0.03l0.02,-0.029l0.02,-0.029l0.02,-0.027l0.021,-0.027l0.019,-0.025l0.02,-0.025l0.02,-0.025l0.02,-0.023l0.019,-0.022l0.019,-0.022l0.019,-0.022l0.019,-0.021l0.018,-0.019l0.018,-0.019l0.034,-0.034l0.031,-0.031l0.03,-0.028l0.026,-0.025l0.023,-0.02l0.018,-0.017l0.017,-0.015l0.013,-0.01l0.017,-0.014l0.017,-0.013l0.018,-0.012l0.018,-0.011l0.019,-0.011l0.019,-0.01l0.02,-0.009l0.019,-0.009l0.021,-0.007l0.02,-0.007l0.021,-0.006l0.021,-0.006l0.021,-0.004l0.021,-0.004l0.022,-0.002l0.021,-0.002l0.022,-0.001l0.021,-0.001l0.022,0.001Zm-0.036,0.557l-0.011,0.009l-0.014,0.013l-0.018,0.016l-0.021,0.019l-0.023,0.023l-0.025,0.025l-0.027,0.028l-0.015,0.015l-0.014,0.015l-0.015,0.016l-0.015,0.017l-0.015,0.017l-0.016,0.018l-0.015,0.019l-0.016,0.019l-0.015,0.019l-0.015,0.02l-0.016,0.021l-0.015,0.02l-0.015,0.022l-0.015,0.021l-0.014,0.022l-0.015,0.023l-0.013,0.023l-0.014,0.023l-0.013,0.023l-0.012,0.024l-0.012,0.024l-0.012,0.025l-0.01,0.024l-0.005,0.013l-0.005,0.012l-0.005,0.012l-0.005,0.013l-0.004,0.013l-0.004,0.012l-0.004,0.013l-0.004,0.013l-0.003,0.012l-0.004,0.013l-0.003,0.013l-0.002,0.013l-0.003,0.013l-0.002,0.013l-0.002,0.012l-0.002,0.013l-0.002,0.013l-0.001,0.013l-0.001,0.013l-0.001,0.013l0,0.013l-0.001,0.014l0.001,0.013l0,0.013l0.001,0.013l0.001,0.013l0.001,0.013l0.002,0.013l0.002,0.013l0.002,0.013l0.003,0.013l0.003,0.013l0.004,0.013l0.003,0.013l0.005,0.013l0.004,0.013l0.005,0.013l0.005,0.013l0.006,0.013l0.006,0.012l0.006,0.013l0.007,0.013l0.008,0.013l0.007,0.012l0.008,0.013l0.009,0.013l0.067,0.095l0.032,0.045l0.03,0.043l0.029,0.04l0.028,0.039l0.028,0.037l0.026,0.035l0.026,0.034l0.026,0.032l0.025,0.03l0.024,0.03l0.025,0.028l0.012,0.013l0.012,0.014l0.012,0.013l0.013,0.012l0.012,0.013l0.012,0.012l0.013,0.012l0.012,0.012l0.013,0.012l0.013,0.012l0.013,0.011l0.013,0.011l0.013,0.011l0.013,0.011l0.014,0.011l0.013,0.011l0.014,0.011l0.014,0.01l0.015,0.011l0.014,0.01l0.015,0.01l0.016,0.011l0.015,0.01l0.016,0.01l0.033,0.021l0.034,0.021l0.036,0.021l0.037,0.021l0.039,0.021l0.041,0.022l0.044,0.023l0.011,0.005l0.011,0.005l0.011,0.005l0.011,0.005l0.011,0.004l0.012,0.004l0.011,0.003l0.011,0.003l0.012,0.003l0.011,0.002l0.012,0.003l0.011,0.001l0.011,0.002l0.012,0.001l0.011,0.001l0.012,0.001l0.011,0l0.012,0l0.012,0l0.011,0l0.012,-0.001l0.011,-0.001l0.012,-0.001l0.011,-0.001l0.012,-0.002l0.011,-0.002l0.012,-0.002l0.012,-0.003l0.011,-0.002l0.012,-0.003l0.011,-0.003l0.012,-0.003l0.011,-0.004l0.011,-0.003l0.012,-0.004l0.011,-0.004l0.023,-0.009l0.022,-0.009l0.023,-0.01l0.022,-0.011l0.022,-0.011l0.022,-0.012l0.022,-0.012l0.021,-0.013l0.021,-0.013l0.021,-0.013l0.021,-0.014l0.02,-0.014l0.02,-0.014l0.02,-0.015l0.019,-0.015l0.019,-0.015l0.019,-0.015l0.018,-0.015l0.018,-0.015l0.017,-0.015l0.017,-0.015l0.016,-0.015l0.016,-0.014l0.016,-0.015l0.015,-0.014l0.014,-0.014l0.028,-0.027l0.024,-0.026l0.023,-0.024l0.02,-0.022l0.017,-0.019l0.015,-0.016l0.011,-0.014l0.008,-0.01l0.007,-0.008l-1.581,-1.611l-0.009,0.008Z" style="fill:#fff;"/></g><text x="-0.565px" y="15.554px" style="font-family:'HelveticaNeue-Bold', 'Helvetica Neue';font-weight:700;font-size:11.779px;fill:#0B0B0B;">BA<tspan x="14.712px 21.909px " y="15.554px 15.554px ">TT</tspan>LE</text><text x="73.696px" y="15.554px" style="font-family:'HelveticaNeue-Bold', 'Helvetica Neue';font-weight:700;font-size:11.779px;fill:#fff;">B<tspan x="82.518px 90.033px 99.727px 108.985px " y="15.554px 15.554px 15.554px 15.554px ">LOCK</tspan></text></svg>